<svg width="170" height="90" viewBox="0 0 170 90" fill="none" xmlns="http://www.w3.org/2000/svg">
<rect x="0.5" y="0.5" width="169" height="89" rx="3.5" stroke="#AFB1B8"/>
<path d="M85.7404 45.7057C85.3224 44.9711 85.1225 44.103 85.1699 43.2292V39.6387C85.1699 38.5381 85.359 37.7016 85.7372 37.1294C86.1154 36.5571 86.7649 36.2722 87.6858 36.2747C88.5512 36.2747 89.1654 36.5182 89.5287 37.0052C89.9249 37.6266 90.1176 38.3864 90.0735 39.1529V39.9967H88.5255V39.142C88.531 38.8622 88.516 38.5824 88.4807 38.3055C88.4584 38.1162 88.3804 37.941 88.2595 37.8088C88.1006 37.6662 87.9003 37.597 87.6987 37.6152C87.4866 37.5971 87.2762 37.6701 87.1089 37.8197C86.9741 37.9663 86.8842 38.1584 86.8525 38.3676C86.8081 38.6607 86.7878 38.9578 86.7916 39.2552V43.6127C86.7672 44.0331 86.8355 44.4538 86.9904 44.8363C87.0673 44.9658 87.1743 45.0684 87.2993 45.1329C87.4243 45.1973 87.5625 45.2211 87.6987 45.2016C87.897 45.2202 88.0937 45.1494 88.2467 45.0044C88.3728 44.8617 88.454 44.6755 88.4775 44.4747C88.5136 44.1856 88.5297 43.8937 88.5255 43.6018V42.7178H90.0735V43.5251C90.117 44.324 89.9289 45.1171 89.5383 45.7824C89.1825 46.3156 88.5768 46.5823 87.6858 46.5823C86.7949 46.5823 86.1218 46.2974 85.7404 45.7057Z" fill="#AFB1B8"/>
<path d="M92.1856 45.7422C91.7946 45.1833 91.5991 44.3688 91.5991 43.2913V39.5145C91.5991 38.448 91.7946 37.6407 92.1856 37.0929C92.5766 36.545 93.2304 36.2722 94.147 36.2747C95.0572 36.2747 95.7078 36.5474 96.0988 37.0929C96.4898 37.6407 96.6885 38.448 96.6885 39.5145V43.2913C96.6885 44.3579 96.4898 45.176 96.0924 45.7385C95.695 46.301 95.0476 46.5823 94.147 46.5823C93.2464 46.5823 92.5798 46.2974 92.1856 45.7422ZM94.8681 44.8363C95.0081 44.4863 95.0719 44.1028 95.054 43.7186V39.0945C95.072 38.7177 95.0093 38.3417 94.8713 37.9987C94.7928 37.8665 94.6832 37.7622 94.5551 37.6976C94.4271 37.633 94.2856 37.6108 94.147 37.6334C94.0079 37.6114 93.8662 37.6338 93.7377 37.6983C93.6093 37.7629 93.4991 37.8669 93.4195 37.9987C93.2786 38.3407 93.2147 38.7173 93.2336 39.0945V43.7406C93.2141 44.1249 93.278 44.5087 93.4195 44.8583C93.5097 44.9761 93.6211 45.0705 93.746 45.1352C93.8709 45.1999 94.0066 45.2334 94.1438 45.2334C94.281 45.2334 94.4167 45.1999 94.5416 45.1352C94.6665 45.0705 94.7779 44.9761 94.8681 44.8583V44.8363Z" fill="#AFB1B8"/>
<path d="M98.5505 36.3848H100.217L101.47 43.3533L102.752 36.3848H104.374L104.537 46.4431H103.339L103.211 39.4527L101.973 46.4431H101.012L99.7299 39.4271L99.6114 46.4431H98.3999L98.5505 36.3848Z" fill="#AFB1B8"/>
<path d="M106.406 36.3848H109.002C110.498 36.3848 111.245 37.3368 111.245 39.2408C111.245 41.0645 110.458 41.9752 108.883 41.9727H107.999V46.4431H106.396L106.406 36.3848ZM108.624 40.6835C108.782 40.7064 108.943 40.6898 109.095 40.635C109.247 40.5801 109.387 40.4882 109.505 40.3657C109.689 40.026 109.77 39.6271 109.736 39.2299C109.744 38.923 109.719 38.6162 109.659 38.3168C109.636 38.2168 109.596 38.123 109.541 38.0408C109.486 37.9587 109.417 37.8899 109.339 37.8384C109.116 37.7168 108.87 37.6615 108.624 37.6777H108.002V40.6835H108.624Z" fill="#AFB1B8"/>
<path d="M113.556 36.3848H115.277L117.043 46.4431H115.549L115.2 44.1239H113.665L113.306 46.4431H111.79L113.556 36.3848ZM115.027 42.9589L114.428 38.7368L113.828 42.9589H115.027Z" fill="#AFB1B8"/>
<path d="M118.469 36.3848H119.591L121.738 42.1225V36.3848H123.068V46.4431H122.001L119.841 40.4534V46.4431H118.466L118.469 36.3848Z" fill="#AFB1B8"/>
<path d="M126.184 42.6081L124.398 36.3989H125.902L126.991 40.3874L128.014 36.3989H129.485L127.722 42.6081V46.4431H126.184V42.6081Z" fill="#AFB1B8"/>
<path d="M88.2146 50.8408V51.3668H86.907V55.4539H86.3589V51.3668H85.0449V50.8408H88.2146Z" fill="#AFB1B8"/>
<path d="M92.3141 55.4542H91.891C91.8481 55.4572 91.8057 55.4415 91.7724 55.4103C91.7404 55.3836 91.7159 55.3468 91.7019 55.3044L91.3238 54.2087H89.5097L89.1316 55.3044C89.1208 55.3502 89.1011 55.3927 89.0739 55.4286C89.0403 55.4592 88.9982 55.4748 88.9553 55.4724H88.5322L90.1347 50.8596H90.6924L92.3141 55.4542ZM89.6604 53.7413H91.1731L90.5321 51.864C90.4848 51.722 90.4452 51.5769 90.4135 51.4294C90.3911 51.517 90.3719 51.601 90.3526 51.6741L90.295 51.8676L89.6604 53.7413Z" fill="#AFB1B8"/>
<path d="M95.0766 55.0012C95.177 55.0072 95.2775 55.0072 95.3779 55.0012C95.4645 54.991 95.5503 54.9727 95.6343 54.9464C95.7128 54.9244 95.7899 54.8964 95.865 54.8624C95.9356 54.8295 96.0061 54.7893 96.0798 54.7491V53.7117H95.4388C95.4229 53.7127 95.4071 53.71 95.3922 53.7037C95.3773 53.6974 95.3637 53.6877 95.3523 53.6752C95.3417 53.6648 95.3334 53.6519 95.3279 53.6373C95.3223 53.6228 95.3197 53.607 95.3202 53.5911V53.2368H96.5637V55.0048C96.4622 55.0876 96.355 55.1609 96.2432 55.224C96.129 55.2883 96.0099 55.3408 95.8875 55.3811C95.7564 55.425 95.6224 55.4568 95.4869 55.4761C95.3315 55.4957 95.1753 55.5055 95.0189 55.5053C94.7425 55.5079 94.4683 55.4496 94.2113 55.3336C93.9714 55.2236 93.7534 55.0596 93.5703 54.8514C93.3919 54.6411 93.2514 54.3928 93.1569 54.1208C93.0559 53.8151 93.0059 53.4905 93.0095 53.1638C93.0061 52.835 93.055 52.5083 93.1537 52.1994C93.2459 51.926 93.3866 51.6773 93.5671 51.4688C93.75 51.2613 93.9681 51.0984 94.2081 50.9903C94.4825 50.8726 94.7738 50.8144 95.067 50.8186C95.2162 50.8184 95.3652 50.8318 95.5125 50.8588C95.6428 50.8829 95.7706 50.9221 95.8939 50.9756C96.006 51.0237 96.1134 51.0849 96.2144 51.1583C96.3126 51.2304 96.4058 51.311 96.4932 51.3994L96.3394 51.6843C96.3273 51.7103 96.3094 51.7322 96.2874 51.7476C96.2654 51.763 96.2402 51.7715 96.2144 51.772C96.1789 51.7707 96.1445 51.758 96.115 51.7355C96.067 51.7062 96.0157 51.6697 95.958 51.6259C95.8898 51.5772 95.818 51.5356 95.7433 51.5017C95.6477 51.458 95.5491 51.4238 95.4484 51.3994C95.3142 51.3712 95.1779 51.3578 95.0414 51.3592C94.8299 51.3565 94.62 51.3999 94.4228 51.4871C94.2445 51.5686 94.0838 51.6932 93.9517 51.8524C93.8189 52.0182 93.7174 52.2134 93.6536 52.4259C93.5105 52.9255 93.5105 53.4641 93.6536 53.9637C93.7238 54.1807 93.833 54.3785 93.9741 54.5446C94.1056 54.7028 94.2651 54.8274 94.4421 54.9099C94.6458 54.9896 94.8619 55.0207 95.0766 55.0012Z" fill="#AFB1B8"/>
<path d="M100.185 54.9279H101.935V55.4539H99.6499V50.8408H100.198L100.185 54.9279Z" fill="#AFB1B8"/>
<path d="M103.756 55.4539H103.208V50.8408H103.756V55.4539Z" fill="#AFB1B8"/>
<path d="M105.794 50.8627C105.826 50.8839 105.855 50.9125 105.877 50.9467L108.22 54.4241C108.217 54.3694 108.217 54.3145 108.22 54.2598C108.22 54.2086 108.22 54.1575 108.22 54.11V50.8225H108.698V55.4542H108.422C108.381 55.458 108.34 55.4492 108.303 55.4286C108.27 55.4057 108.241 55.376 108.217 55.341L105.877 51.8672C105.877 51.922 105.877 51.9731 105.877 52.0243C105.877 52.0754 105.877 52.1229 105.877 52.1667V55.4542H105.419V50.8408H105.704C105.735 50.8408 105.766 50.8483 105.794 50.8627Z" fill="#AFB1B8"/>
<path d="M112.732 50.8408V51.3485H110.79V52.8716H112.364V53.361H110.79V54.9352H112.732V55.4429H110.226V50.8408H112.732Z" fill="#AFB1B8"/>
<path d="M55.3035 22.3522L79.6385 30.2268V57.8209L55.3035 49.9499V22.3522ZM53.7427 20V51.2904L81.196 60.1768V28.89L53.7427 20Z" fill="#AFB1B8"/>
<path d="M68.4565 74.7024L41 65.8086V34.5212L68.4565 43.4114V74.7024Z" fill="#AFB1B8"/>
<path d="M54.1978 21.9978L78.2155 29.7737L68.0014 41.4174L43.9806 33.6379L54.1978 21.9978ZM53.7427 20L41 34.5218L68.4565 43.4116L81.196 28.8898L53.7427 20Z" fill="#AFB1B8"/>
<path d="M70.0015 72.9421L81.1962 60.1808L70.0015 56.554V72.9421Z" fill="#AFB1B8"/>
</svg>
