<svg width="170" height="90" viewBox="0 0 170 90" fill="none" xmlns="http://www.w3.org/2000/svg">
<rect x="0.5" y="0.5" width="169" height="89" rx="3.5" stroke="#AFB1B8"/>
<path d="M71.3457 69.3137C71.3607 69.3142 71.3755 69.3181 71.3891 69.3252C71.4028 69.3323 71.4152 69.3424 71.4254 69.355L71.6312 69.6147C71.4714 69.8248 71.274 69.9929 71.0524 70.1074C70.7929 70.2323 70.5133 70.2927 70.2319 70.2844C69.9675 70.2907 69.7049 70.2344 69.4603 70.1192C69.2396 70.0134 69.0414 69.8544 68.879 69.653C68.7132 69.4442 68.5855 69.1994 68.5034 68.9331C68.4135 68.6363 68.3692 68.3238 68.3723 68.0096C68.3686 67.6934 68.4166 67.3792 68.5137 67.0832C68.6036 66.8152 68.7391 66.5704 68.9124 66.3633C69.0881 66.1601 69.2982 66.0004 69.5297 65.8941C69.7831 65.7815 70.0528 65.7254 70.3245 65.7289C70.5769 65.7219 70.8279 65.773 71.0627 65.8794C71.2664 65.9808 71.4535 66.1215 71.6157 66.2954L71.4434 66.5727C71.4315 66.5923 71.4167 66.6092 71.3997 66.6229C71.3793 66.6389 71.3548 66.6462 71.3302 66.6436C71.3035 66.6414 71.2778 66.6313 71.2556 66.614L71.163 66.5403L71.0344 66.4459C70.9789 66.4108 70.9213 66.3803 70.8621 66.3544C70.7858 66.3231 70.7076 66.2984 70.628 66.2806C70.5271 66.2593 70.4246 66.2494 70.3219 66.2511C70.1263 66.2483 69.9322 66.2905 69.7509 66.3751C69.5819 66.4534 69.4294 66.5721 69.3034 66.7232C69.1751 66.8839 69.0763 67.0726 69.0127 67.2779C68.9403 67.5128 68.9046 67.7605 68.9073 68.0096C68.9042 68.2626 68.9399 68.5143 69.0127 68.7531C69.0755 68.9567 69.1725 69.1442 69.2982 69.3049C69.416 69.4547 69.5621 69.5717 69.7252 69.6471C69.8931 69.727 70.0733 69.7671 70.2551 69.7651C70.3601 69.767 70.465 69.7591 70.5689 69.7415C70.7385 69.7178 70.9012 69.6502 71.0447 69.5438C71.1167 69.4894 71.1847 69.4282 71.2479 69.3609C71.2744 69.332 71.3091 69.3152 71.3457 69.3137Z" fill="#AFB1B8"/>
<path d="M77.2871 68.0092C77.2903 68.3222 77.2432 68.6332 77.1482 68.9267C77.0644 69.1929 76.9323 69.4357 76.7608 69.6391C76.5892 69.8425 76.382 70.0019 76.1528 70.1067C75.6492 70.3271 75.0925 70.3271 74.589 70.1067C74.3613 70.0002 74.1554 69.8405 73.9845 69.6377C73.8131 69.4305 73.68 69.1857 73.5936 68.9178C73.4083 68.3236 73.4083 67.6741 73.5936 67.0799C73.6813 66.8119 73.8141 66.5663 73.9845 66.3571C74.1568 66.1607 74.3626 66.007 74.589 65.9057C75.0919 65.6815 75.6499 65.6815 76.1528 65.9057C76.3813 66.0122 76.588 66.1719 76.7598 66.3748C76.9292 66.5799 77.0612 66.8216 77.1482 67.0858C77.2435 67.3812 77.2906 67.6942 77.2871 68.0092ZM76.747 68.0092C76.751 67.7588 76.718 67.5094 76.6492 67.2717C76.5916 67.068 76.4979 66.8802 76.374 66.72C76.2534 66.5684 76.1049 66.4495 75.9393 66.3719C75.5734 66.2106 75.1684 66.2106 74.8024 66.3719C74.6368 66.4495 74.4884 66.5684 74.3678 66.72C74.2422 66.8792 74.1475 67.0673 74.09 67.2717C73.9591 67.7519 73.9591 68.2665 74.09 68.7467C74.148 68.9508 74.2427 69.1387 74.3678 69.2984C74.4885 69.4491 74.637 69.567 74.8024 69.6436C75.169 69.8008 75.5728 69.8008 75.9393 69.6436C76.1048 69.567 76.2533 69.4491 76.374 69.2984C76.4974 69.1378 76.591 68.9501 76.6492 68.7467C76.7183 68.5091 76.7513 68.2596 76.747 68.0092Z" fill="#AFB1B8"/>
<path d="M81.3408 68.7825L81.3948 68.9477C81.4154 68.8887 81.4334 68.8356 81.4539 68.7825C81.4736 68.727 81.4959 68.6728 81.5208 68.6202L82.8352 65.8797C82.8609 65.8325 82.884 65.803 82.9098 65.7942C82.9447 65.782 82.9813 65.777 83.0178 65.7794H83.4062V70.2368H82.9458V66.9594C82.9458 66.9181 82.9458 66.8709 82.9458 66.8208C82.9433 66.7697 82.9433 66.7185 82.9458 66.6674L81.6237 69.4462C81.6069 69.4878 81.58 69.5231 81.5463 69.5476C81.5125 69.5722 81.4733 69.5851 81.4334 69.5849H81.3588C81.3187 69.5855 81.2794 69.5727 81.2456 69.5481C81.2118 69.5235 81.185 69.4881 81.1684 69.4462L79.8078 66.6497C79.8078 66.7028 79.8078 66.7559 79.8078 66.809C79.8078 66.8621 79.8078 66.9093 79.8078 66.9506V70.228H79.3628V65.7794H79.7512C79.7877 65.777 79.8243 65.782 79.8592 65.7942C79.8911 65.8123 79.9165 65.8425 79.9312 65.8797L81.2739 68.6232C81.3003 68.6739 81.3227 68.7272 81.3408 68.7825Z" fill="#AFB1B8"/>
<path d="M86.2869 68.5609V70.2305H85.7725V65.7793H86.9196C87.1362 65.7745 87.3521 65.8073 87.5601 65.8766C87.7266 65.9307 87.881 66.0253 88.0128 66.1539C88.127 66.2744 88.2151 66.4239 88.27 66.5905C88.3307 66.772 88.3604 66.9653 88.3575 67.1598C88.3597 67.355 88.3274 67.5487 88.2623 67.7291C88.2005 67.8998 88.1054 68.0522 87.9845 68.1745C87.8525 68.3084 87.6974 68.409 87.5292 68.4695C87.329 68.5428 87.1195 68.5777 86.9093 68.5727L86.2869 68.5609ZM86.2869 68.083H86.9093C87.0446 68.085 87.1792 68.0621 87.308 68.0152C87.4143 67.9742 87.5123 67.9089 87.5961 67.8235C87.6734 67.7418 87.7332 67.6409 87.771 67.5285C87.8131 67.4096 87.8341 67.2822 87.8327 67.1539C87.8387 67.0301 87.8211 66.9064 87.7811 66.7912C87.7412 66.6761 87.6798 66.5724 87.6013 66.4872C87.4047 66.3112 87.1579 66.226 86.9093 66.2483H86.2869V68.083Z" fill="#AFB1B8"/>
<path d="M93.2007 70.2367H92.7943C92.7536 70.2385 92.7135 70.2239 92.6812 70.1954C92.652 70.1676 92.6291 70.1322 92.6143 70.0921L92.2645 69.0153H90.5077L90.145 70.0921C90.1317 70.1315 90.1095 70.1661 90.0807 70.1924C90.048 70.2226 90.007 70.2383 89.965 70.2367H89.5586L91.1019 65.7788H91.6369L93.2007 70.2367ZM90.6543 68.5816H92.105L91.4928 66.7671C91.4461 66.6307 91.4074 66.4907 91.3771 66.3482L91.3179 66.5813C91.2999 66.6521 91.2794 66.717 91.2614 66.7701L90.6543 68.5816Z" fill="#AFB1B8"/>
<path d="M95.4233 65.7996C95.4541 65.8189 95.4805 65.8462 95.5005 65.8792L97.7511 69.2395C97.7511 69.1864 97.7511 69.1333 97.7511 69.0832C97.7511 69.033 97.7511 68.9829 97.7511 68.9357V65.7789H98.2115V70.2367H97.9543C97.9178 70.238 97.8816 70.2289 97.8489 70.2101C97.8171 70.1889 97.7892 70.1609 97.7666 70.1275L95.5185 66.7702C95.521 66.8213 95.521 66.8725 95.5185 66.9236C95.5185 66.9737 95.5185 67.018 95.5185 67.0593V70.2367H95.0581V65.7789H95.3308C95.3626 65.7779 95.3942 65.7849 95.4233 65.7996Z" fill="#AFB1B8"/>
<path d="M102.003 68.4638V70.2339H101.488V68.4638L100.066 65.7791H100.526C100.566 65.7764 100.605 65.79 100.637 65.8174C100.665 65.8461 100.688 65.88 100.706 65.9177L101.596 67.6495C101.632 67.7233 101.663 67.7911 101.689 67.856C101.715 67.9209 101.735 67.9829 101.753 68.0448L101.82 67.8531C101.845 67.783 101.874 67.7149 101.908 67.6495L102.785 65.9059C102.803 65.8711 102.826 65.8394 102.852 65.8115C102.882 65.781 102.922 65.7651 102.962 65.7673H103.428L102.003 68.4638Z" fill="#AFB1B8"/>
<path d="M81.0859 58.2983C81.3097 58.3307 81.5361 58.3573 81.765 58.3809C85.2356 56.6002 88.1716 53.6858 90.206 50.0018C92.2404 46.3179 93.283 42.028 93.2033 37.6683L89.3785 33.2815C90.1562 37.9232 89.7925 42.7216 88.3279 47.1398C86.8634 51.5579 84.3559 55.4215 81.0859 58.2983Z" fill="#AFB1B8"/>
<path d="M79.7202 58.0943L79.8231 58.1179C83.3173 55.2514 85.9814 51.2484 87.4708 46.6268C88.9601 42.0051 89.2063 36.9772 88.1774 32.1934L82.7296 25.9453C84.9331 31.0811 85.82 36.8288 85.2873 42.52C84.7546 48.2112 82.824 53.612 79.7202 58.0943Z" fill="#AFB1B8"/>
<path d="M98.1959 42.8193C97.2704 47.6097 95.0225 51.9299 91.7861 55.1387C90.841 56.081 89.8214 56.9205 88.7407 57.6462C91.3761 56.7578 93.7983 55.1872 95.8207 53.0553C97.8432 50.9235 99.4117 48.2875 100.405 45.3505L98.1959 42.8193Z" fill="#AFB1B8"/>
<path d="M97.3292 42.114L94.1835 38.5061C94.1233 42.6195 93.1037 46.6394 91.2306 50.148C89.3575 53.6566 86.6993 56.5257 83.5322 58.4573H83.5477C84.2534 58.457 84.9586 58.4087 85.6594 58.3127C88.6192 56.9272 91.2339 54.7228 93.2702 51.8963C95.3064 49.0697 96.7009 45.709 97.3292 42.114Z" fill="#AFB1B8"/>
<path d="M80.1757 23.3101L76.4229 19C73.0681 20.4869 70.1828 23.1008 68.1446 26.4996C66.1065 29.8984 65.0105 33.9237 65 38.0488V38.0488C65.0126 42.6068 66.3502 47.0299 68.8012 50.6179C71.2521 54.2059 74.6764 56.7539 78.5321 57.8586C81.974 53.049 83.9892 47.106 84.2847 40.8929C84.5803 34.6799 83.1409 28.5207 80.1757 23.3101Z" fill="#AFB1B8"/>
<path d="M106 41.4503C105.987 36.0425 104.108 30.8606 100.773 27.0367C97.4394 23.2127 92.9213 21.0576 88.2062 21.042C86.0274 21.0394 83.8671 21.5005 81.835 22.402L104.812 48.7546C105.599 46.4252 106.002 43.9485 106 41.4503Z" fill="#AFB1B8"/>
</svg>
