<svg width="170" height="90" viewBox="0 0 170 90" fill="none" xmlns="http://www.w3.org/2000/svg">
<rect x="0.5" y="0.5" width="169" height="89" rx="3.5" stroke="#AFB1B8"/>
<path d="M69 21L76.3076 29.328H96.6924V52.5594L104 60.8875V21H69Z" fill="#AFB1B8"/>
<path d="M63 28.9771V67.7251H97V52.3231L76.5231 28.9866L63 28.9771ZM90.5231 62.0572H68.3801V35.9972H69.9453V60.2926H90.5231V62.0572Z" fill="#AFB1B8"/>
<path d="M72.791 74.2742L73.6089 72.5896H74.2925L73.1011 74.8357V76.1443H72.481V74.8357L71.2871 72.5896H71.9731L72.791 74.2742ZM76.3018 75.3167H74.9248L74.6367 76.1443H73.9946L75.3374 72.5896H75.8916L77.2368 76.1443H76.5923L76.3018 75.3167ZM75.0981 74.8186H76.1284L75.6133 73.344L75.0981 74.8186ZM78.7358 75.1848C78.7358 75.0204 78.7806 74.8699 78.8701 74.7332C78.9596 74.5948 79.1362 74.4312 79.3999 74.2424C79.2616 74.0683 79.1647 73.9202 79.1094 73.7981C79.0557 73.676 79.0288 73.558 79.0288 73.4441C79.0288 73.1658 79.1134 72.946 79.2827 72.7849C79.452 72.6222 79.6799 72.5408 79.9663 72.5408C80.2251 72.5408 80.4367 72.6173 80.6011 72.7703C80.7671 72.9216 80.8501 73.1096 80.8501 73.3342C80.8501 73.4823 80.8127 73.6191 80.7378 73.7444C80.6629 73.8681 80.54 73.9918 80.3691 74.1155L80.1274 74.2913L80.8135 75.1018C80.9128 74.9065 80.9624 74.6892 80.9624 74.45H81.4775C81.4775 74.8878 81.375 75.2467 81.1699 75.5266L81.6924 76.1443H81.0039L80.8037 75.9075C80.5498 76.0979 80.2471 76.1931 79.8955 76.1931C79.5439 76.1931 79.2624 76.1003 79.0508 75.9148C78.8408 75.7276 78.7358 75.4843 78.7358 75.1848ZM79.9126 75.7195C80.1128 75.7195 80.3 75.6528 80.4741 75.5193L79.6978 74.6038L79.6221 74.6575C79.4268 74.8056 79.3291 74.9749 79.3291 75.1653C79.3291 75.3297 79.382 75.4631 79.4878 75.5657C79.5936 75.6682 79.7352 75.7195 79.9126 75.7195ZM79.5854 73.4294C79.5854 73.5662 79.6693 73.7379 79.8369 73.9446L80.1079 73.759L80.1836 73.698C80.2845 73.6085 80.335 73.4937 80.335 73.3538C80.335 73.261 80.3 73.182 80.23 73.1169C80.16 73.0502 80.0713 73.0168 79.9639 73.0168C79.8483 73.0168 79.7563 73.0559 79.688 73.134C79.6196 73.2122 79.5854 73.3106 79.5854 73.4294ZM86.043 74.9871C86.0072 75.3663 85.8672 75.6625 85.623 75.8757C85.3789 76.0873 85.0542 76.1931 84.6489 76.1931C84.3657 76.1931 84.1159 76.1264 83.8994 75.9929C83.6846 75.8578 83.5186 75.6666 83.4014 75.4192C83.2842 75.1718 83.2231 74.8845 83.2183 74.5574V74.2253C83.2183 73.8901 83.2777 73.5946 83.3965 73.3391C83.5153 73.0836 83.6854 72.8866 83.9067 72.7483C84.1297 72.6099 84.3869 72.5408 84.6782 72.5408C85.0705 72.5408 85.3862 72.6474 85.6255 72.8606C85.8647 73.0738 86.0039 73.3749 86.043 73.7639H85.4277C85.3984 73.5084 85.3236 73.3245 85.2031 73.2122C85.0843 73.0982 84.9093 73.0413 84.6782 73.0413C84.4097 73.0413 84.203 73.1397 84.0581 73.3367C83.9149 73.532 83.8416 73.8193 83.8384 74.1985V74.5134C83.8384 74.8975 83.9067 75.1905 84.0435 75.3923C84.1818 75.5942 84.3836 75.6951 84.6489 75.6951C84.8914 75.6951 85.0737 75.6405 85.1958 75.5315C85.3179 75.4224 85.3952 75.241 85.4277 74.9871H86.043ZM89.4341 74.4597C89.4341 74.808 89.3739 75.114 89.2534 75.3777C89.133 75.6397 88.9604 75.8416 88.7358 75.9832C88.5129 76.1231 88.2557 76.1931 87.9644 76.1931C87.6763 76.1931 87.4191 76.1231 87.1929 75.9832C86.9683 75.8416 86.7941 75.6405 86.6704 75.3801C86.5483 75.1197 86.4865 74.8194 86.4849 74.4792V74.2791C86.4849 73.9324 86.5459 73.6264 86.668 73.3611C86.7917 73.0958 86.965 72.8931 87.188 72.7532C87.4126 72.6116 87.6698 72.5408 87.9595 72.5408C88.2492 72.5408 88.5055 72.6108 88.7285 72.7507C88.9531 72.8891 89.1265 73.0893 89.2485 73.3513C89.3706 73.6117 89.4325 73.9153 89.4341 74.262V74.4597ZM88.8164 74.2742C88.8164 73.8803 88.7415 73.5784 88.5918 73.3684C88.4437 73.1584 88.2329 73.0535 87.9595 73.0535C87.6925 73.0535 87.4834 73.1584 87.332 73.3684C87.1823 73.5767 87.1058 73.8722 87.1025 74.2546V74.4597C87.1025 74.8503 87.1782 75.1523 87.3296 75.3655C87.4826 75.5787 87.6942 75.6853 87.9644 75.6853C88.2378 75.6853 88.4478 75.5811 88.5942 75.3728C88.7424 75.1645 88.8164 74.8601 88.8164 74.4597V74.2742Z" fill="#AFB1B8"/>
</svg>
